<svg xmlns="http://www.w3.org/2000/svg" width="11.9552" height="11.9552" viewBox="0 0 11.9552 11.9552"><defs><style>.cls-1{fill:#5abf8d;}</style></defs><title>Asset 5</title><g id="Layer_2" data-name="Layer 2"><g id="reverse_side" data-name="reverse side"><path class="cls-1" d="M11.955 4.98V2.99A2.65 2.65 0 0 0 10.087.466 16.914 16.914 0 0 0 6.163 0a18.244 18.244 0 0 0-4.077.468A2.757 2.757 0 0 0 0 2.987v1.993a.498.498 0 0 0 .498.5h.93A4.964 4.964 0 0 0 0 8.965v2.49a.498.498 0 0 0 .498.5h10.96a.498.498 0 0 0 .497-.5v-2.49a4.964 4.964 0 0 0-1.427-3.486h.93a.498.498 0 0 0 .497-.5zm-.996 3.986v1.993H.995V8.965A3.982 3.982 0 0 1 3.054 5.48h.433a.498.498 0 0 0 .498-.5v-.868c.996-.08 1.317-.127 1.992-.127a14.414 14.414 0 0 1 1.993.127v.87a.498.498 0 0 0 .498.497H8.9a3.982 3.982 0 0 1 2.06 3.486zm0-4.483H8.965v-1.23a13.746 13.746 0 0 0-2.988-.264 17.51 17.51 0 0 0-2.99.262v1.23H.997V2.99c0-1.205 1.62-1.608 1.62-1.608A16.846 16.846 0 0 1 6.162.996a15.434 15.434 0 0 1 3.395.387s1.4.402 1.4 1.606z"/><path class="cls-1" d="M5.978 4.98a2.49 2.49 0 1 0 2.49 2.492 2.49 2.49 0 0 0-2.49-2.49zm0 4.484A1.992 1.992 0 1 1 7.97 7.473a1.993 1.993 0 0 1-1.992 1.993z"/><circle class="cls-1" cx="5.7285" cy="6.2267" r="0.2491"/><circle class="cls-1" cx="6.2267" cy="8.7174" r="0.2491"/><circle class="cls-1" cx="7.2229" cy="7.2229" r="0.2491"/><circle class="cls-1" cx="4.7323" cy="7.7211" r="0.2491"/></g></g></svg>